<svg width="57" height="57" viewBox="0 0 57 57" fill="none" xmlns="http://www.w3.org/2000/svg">
<g clip-path="url(#clip0)">
<path d="M20.6887 17.9795H36.3774C37.8673 17.9795 39.0863 19.0826 39.0863 20.6884V36.3776C39.0863 37.9834 37.8673 39.0865 36.3774 39.0865H20.6887C19.1983 39.0865 17.9795 37.9834 17.9795 36.3776V20.6884C17.9795 19.0826 19.1983 17.9795 20.6887 17.9795ZM33.3551 20.3246C32.8323 20.3246 32.4052 20.7519 32.4052 21.2749V23.5493C32.4052 24.072 32.8323 24.4996 33.3551 24.4996H35.7407C36.2634 24.4996 36.691 24.072 36.691 23.5493V21.2749C36.691 20.7519 36.2634 20.3246 35.7407 20.3246H33.3551ZM36.7009 26.9056H34.8432C35.019 27.4794 35.1141 28.0873 35.1141 28.7162C35.1141 32.227 32.1763 35.073 28.5531 35.073C24.93 35.073 21.9926 32.227 21.9926 28.7162C21.9926 28.0869 22.0876 27.4792 22.2635 26.9056H20.325V35.8215C20.325 36.2829 20.7025 36.6606 21.1641 36.6606H35.8622C36.3238 36.6606 36.7014 36.2831 36.7014 35.8215V26.9056H36.7009ZM28.5528 24.3798C26.2119 24.3798 24.3139 26.2186 24.3139 28.4872C24.3139 30.7558 26.2119 32.5946 28.5528 32.5946C30.894 32.5946 32.7922 30.7558 32.7922 28.4872C32.7922 26.2186 30.8942 24.3798 28.5528 24.3798Z" fill="white"/>
</g>
<circle cx="28.1427" cy="28.1427" r="27.6427" stroke="white"/>
<defs>
<clipPath id="clip0">
<rect width="21.107" height="21.107" fill="white" transform="translate(17.9795 17.9795)"/>
</clipPath>
</defs>
</svg>
