<svg width="19" height="19" viewBox="0 0 19 19" fill="none" xmlns="http://www.w3.org/2000/svg">
<g clip-path="url(#clip0)">
<path d="M9.5001 12.2142L7.14953 10.1567L0.428955 15.9178C0.673241 16.1445 1.00303 16.2856 1.36674 16.2856H17.6335C17.9958 16.2856 18.3242 16.1445 18.5672 15.9178L11.8507 10.1567L9.5001 12.2142Z" fill="white"/>
<path d="M18.5712 3.08214C18.3269 2.85414 17.9985 2.71436 17.6334 2.71436H1.36671C1.00435 2.71436 0.675926 2.8555 0.431641 3.08486L9.50007 10.8572L18.5712 3.08214Z" fill="white"/>
<path d="M0 3.90576V15.1809L6.55907 9.60712L0 3.90576Z" fill="white"/>
<path d="M12.4413 9.60728L19.0004 15.1811V3.90186L12.4413 9.60728Z" fill="white"/>
</g>
<defs>
<clipPath id="clip0">
<rect width="19" height="19" fill="white"/>
</clipPath>
</defs>
</svg>
