<svg width="18" height="18" viewBox="0 0 18 18" fill="none" xmlns="http://www.w3.org/2000/svg">
<path d="M12.4372 9.21883C12.4022 9.2713 12.4022 9.32378 12.3847 9.39376C12.3672 9.62116 12.5421 9.83108 12.7695 9.84857C12.997 9.86606 13.2069 9.69114 13.2244 9.46373C13.2244 9.41125 13.2244 9.35877 13.2419 9.27131C13.2419 9.18384 13.2419 9.13136 13.2419 9.07888C13.2419 8.57159 13.1544 8.08179 12.997 7.60948C12.787 6.99723 12.4197 6.45494 11.9824 6.00013C11.4401 5.45785 10.7754 5.073 10.0232 4.86309C9.6733 4.77562 9.28846 4.72314 8.92111 4.72314C8.79866 4.72314 8.67621 4.72314 8.53626 4.74064C8.41381 4.75813 8.29136 4.77562 8.16891 4.79312C7.9415 4.8281 7.78407 5.05551 7.83655 5.26543C7.87153 5.49283 8.09894 5.65027 8.30886 5.59779C8.41381 5.5803 8.50128 5.56281 8.60623 5.56281C8.62373 5.56281 8.64122 5.56281 8.65871 5.56281C8.74618 5.56281 8.83364 5.54531 8.92111 5.54531C9.88322 5.54531 10.7754 5.93016 11.4051 6.57739C12.0348 7.20714 12.4197 8.06429 12.4372 9.0264V9.06139C12.4372 9.13136 12.4372 9.18384 12.4372 9.21883Z" fill="white"/>
<path d="M14.7465 9.60357C14.729 9.83098 14.904 10.0409 15.1314 10.0584C15.3588 10.0759 15.5687 9.90095 15.5862 9.67354C15.6037 9.48112 15.6037 9.2887 15.6037 9.09627C15.6037 8.71143 15.5687 8.34408 15.5162 7.97673C15.2888 6.57729 14.6066 5.3178 13.6445 4.35569C12.5424 3.25364 11.073 2.53643 9.44617 2.41398C9.27124 2.39648 9.07882 2.39648 8.90389 2.39648C8.71147 2.39648 8.51905 2.39648 8.32662 2.41398C8.1342 2.43147 7.94178 2.44896 7.74936 2.48395C7.52195 2.51893 7.36451 2.74634 7.41699 2.95626C7.45198 3.18367 7.67939 3.3411 7.8893 3.28862C8.01175 3.27113 8.11671 3.25364 8.23916 3.23614C8.29164 3.23614 8.34412 3.21865 8.3966 3.21865C8.57152 3.20116 8.74645 3.20116 8.90389 3.20116C9.49865 3.20116 10.0584 3.28862 10.6007 3.44606C11.5453 3.72595 12.385 4.23324 13.0672 4.91546C13.627 5.47524 14.0818 6.15746 14.3792 6.89216C14.6416 7.5569 14.799 8.2916 14.799 9.06129C14.799 9.11377 14.799 9.18374 14.799 9.23622C14.764 9.37616 14.7465 9.48112 14.7465 9.60357Z" fill="white"/>
<path d="M15.3409 2.67642C13.679 1.01459 11.405 0 8.88598 0C8.62358 0 8.36119 0.0174929 8.0988 0.0349858C7.8364 0.0524787 7.57401 0.0874646 7.31161 0.139943C7.08421 0.174929 6.92677 0.402337 6.97925 0.612252C7.01423 0.83966 7.24164 0.997096 7.45156 0.944617C7.57401 0.927124 7.67896 0.909631 7.80142 0.892139C7.92387 0.874646 8.04632 0.857153 8.16877 0.857153C8.41367 0.83966 8.64108 0.822167 8.88598 0.822167C11.1601 0.822167 13.2242 1.74929 14.7286 3.23619C16.2155 4.72309 17.1426 6.78725 17.1426 9.07882C17.1426 9.20127 17.1426 9.34122 17.1426 9.46367C17.1426 9.56862 17.1251 9.67358 17.1251 9.79603C17.1076 10.0234 17.2826 10.2334 17.51 10.2508C17.7374 10.2683 17.9473 10.0934 17.9648 9.866C17.9823 9.60361 17.9998 9.34122 17.9998 9.09631C17.9998 6.59483 16.9852 4.32075 15.3409 2.67642Z" fill="white"/>
<path d="M17.3528 13.2773L14.2565 11.6155C13.2244 11.0557 13.1894 11.423 12.1049 12.5776C11.8425 12.8575 11.3527 13.5922 10.7754 13.4522C9.56841 13.1548 7.31183 11.3881 6.57713 10.5834C6.22727 10.1985 4.72288 8.36179 4.70539 7.76703C4.6704 6.8574 6.66459 6.40258 6.01735 4.67078L4.63541 1.57454C3.34094 -1.39926 -0.280095 3.35881 0.0172844 5.58041C0.786973 11.0557 10.3906 19.9071 15.7434 16.9858C16.9329 16.3211 18.5423 13.9945 17.3528 13.2773Z" fill="white"/>
</svg>
